Coordinates
version=1
nRows=32
nColumns=22
inDegrees=yes

Units are S.I. units (second, meters, Newtons, ...)
If the header above contains a line with 'inDegrees', this indicates whether rotational values are in degrees (yes) or radians (no).

endheader
time	pelvis_tilt	pelvis_list	pelvis_rotation	pelvis_tx	pelvis_ty	pelvis_tz	hip_flexion_r	hip_adduction_r	hip_rotation_r	knee_angle_r	ankle_angle_r	subtalar_angle_r	hip_flexion_l	hip_adduction_l	hip_rotation_l	knee_angle_l	ankle_angle_l	subtalar_angle_l	lumbar_extension	lumbar_bending	lumbar_rotation
      2.92000000	     -2.88566772	      1.13998014	    -11.73861753	     -1.01074474	      0.89064417	      0.02101872	    -12.32129780	     -0.92417034	      7.43272313	    -27.75755384	      0.61518313	      3.15105699	     30.73763930	     -3.67100558	    -14.95635938	    -32.61963810	      2.72274305	     -6.95062869	     -5.23115587	     -6.94949646	      7.75824818
      2.93000000	     -2.78670836	      1.29228250	    -11.64737892	     -0.99971323	      0.89281636	      0.01993789	    -11.57773957	     -1.11783552	      7.28559660	    -29.82868426	     -2.27588245	      3.62638089	     29.89686245	     -3.16773780	    -14.78500864	    -32.54910493	      3.12176513	     -7.10684184	     -5.13662290	     -7.15984934	      7.23078365
      2.94000000	     -2.68452651	      1.37924737	    -11.57754058	     -0.98886647	      0.89500742	      0.01886208	    -10.66632830	     -1.23805196	      7.14223214	    -32.12211203	     -5.25887651	      3.98482907	     29.00946741	     -2.73616093	    -14.62718211	    -32.40714596	      3.54035208	     -7.18696774	     -5.07361910	     -7.27749733	      6.72952060
      2.95000000	     -2.57731661	      1.40998697	    -11.52027142	     -0.97823398	      0.89715720	      0.01778804	     -9.58590436	     -1.29910937	      6.97862839	    -34.64011512	     -8.25590177	      4.38009260	     28.09543509	     -2.36885331	    -14.48360553	    -32.22835758	      3.99135684	     -7.23151505	     -5.04679871	     -7.31560058	      6.24667175
      2.96000000	     -2.47557379	      1.40243535	    -11.48187648	     -0.96783673	      0.89922416	      0.01674552	     -8.32692721	     -1.31727775	      6.80845014	    -37.36975880	    -11.16618783	      4.74147758	     27.16556037	     -2.05890770	    -14.37573331	    -32.00683465	      4.46024216	     -7.22910106	     -5.04116894	     -7.29512061	      5.77270025
      2.97000000	     -2.37835576	      1.38153925	    -11.46658847	     -0.95770146	      0.90117703	      0.01573488	     -6.89497661	     -1.32243132	      6.63028996	    -40.28090202	    -13.89319251	      5.05970623	     26.22448628	     -1.78307253	    -14.31881811	    -31.73948864	      4.93629391	     -7.18463744	     -5.05585483	     -7.24483922	      5.31382533
      2.98000000	     -2.30596377	      1.37234020	    -11.46981056	     -0.94787117	      0.90294645	      0.01476047	     -5.27771335	     -1.32977575	      6.46360797	    -43.33526947	    -16.31491030	      5.41737841	     25.30973984	     -1.52426578	    -14.32752898	    -31.44063812	      5.43871051	     -7.09777823	     -5.07144824	     -7.19166960	      4.85193261
      2.99000000	     -2.22297683	      1.39517462	    -11.49973084	     -0.93834127	      0.90459052	      0.01383246	     -3.53354103	     -1.37172048	      6.30438835	    -46.45695870	    -18.35687183	      5.74338773	     24.37984141	     -1.25163011	    -14.39952898	    -31.09034203	      5.88505679	     -6.98482483	     -5.12478931	     -7.17018963	      4.42069710
      3.00000000	     -2.14682320	      1.45454085	    -11.54833322	     -0.92910497	      0.90606758	      0.01295166	     -1.67186486	     -1.43643515	      6.17943358	    -49.57719644	    -19.90580720	      6.10565059	     23.46453019	     -0.96033827	    -14.51779851	    -30.70748520	      6.32629172	     -6.84163666	     -5.19211314	     -7.18288635	      4.01011756
      3.01000000	     -2.03406731	      1.57149505	    -11.60558020	     -0.92010660	      0.90745400	      0.01209872	      0.23221014	     -1.55651757	      6.07483784	    -52.61938231	    -20.90782052	      6.39532521	     22.52149511	     -0.61953502	    -14.71152293	    -30.29096389	      6.69436610	     -6.68650743	     -5.31805316	     -7.26320534	      3.60098976
      3.02000000	     -1.91369826	      1.72233986	    -11.66150418	     -0.91131051	      0.90871658	      0.01129042	      2.17320161	     -1.67943004	      6.02521038	    -55.52324681	    -21.30560695	      6.65458742	     21.58433461	     -0.24909515	    -14.92067172	    -29.85681660	      7.06255870	     -6.51078630	     -5.46590703	     -7.38100027	      3.18289504
      3.03000000	     -1.75274648	      1.88944625	    -11.70101086	     -0.90265857	      0.90995190	      0.01048838	      4.08501306	     -1.79617978	      6.00735196	    -58.22971772	    -21.15390395	      6.81814719	     20.60631881	      0.15729815	    -15.09748417	    -29.38861358	      7.41712746	     -6.33926713	     -5.67570664	     -7.52145805	      2.78234372
      3.04000000	     -1.57956847	      2.05948492	    -11.70875933	     -0.89411764	      0.91113191	      0.00969891	      5.98105835	     -1.89150852	      5.98866445	    -60.71093077	    -20.54688982	      6.88255738	     19.63651288	      0.56118421	    -15.30869294	    -28.93682765	      7.71465332	     -6.15721115	     -5.91295800	     -7.66335279	      2.33354762
      3.05000000	     -1.37786736	      2.21194020	    -11.68395683	     -0.88565765	      0.91231977	      0.00890767	      7.82701348	     -1.95540354	      5.95257035	    -62.93645408	    -19.62046438	      6.79806850	     18.63420860	      0.96971124	    -15.45371282	    -28.46500270	      8.00736931	     -5.98379707	     -6.19842232	     -7.78849456	      1.90197415
      3.06000000	     -1.14766283	      2.32382003	    -11.61670777	     -0.87723264	      0.91355273	      0.00811805	      9.59617886	     -1.96643702	      5.88506098	    -64.87479559	    -18.44379667	      6.60767517	     17.58578791	      1.35859814	    -15.53746006	    -27.96377116	      8.28229756	     -5.83902087	     -6.53185220	     -7.87153600	      1.45135931
      3.07000000	     -0.90903709	      2.37709119	    -11.49400663	     -0.86882451	      0.91482017	      0.00730441	     11.29058558	     -1.90917499	      5.76592344	    -66.50746495	    -17.09360751	      6.36805435	     16.50652410	      1.70548249	    -15.55632420	    -27.43021766	      8.52915583	     -5.72448305	     -6.89318917	     -7.88308483	      0.98151862
      3.08000000	     -0.66751260	      2.37828626	    -11.32169366	     -0.86042909	      0.91609766	      0.00647442	     12.91864891	     -1.80009925	      5.58111543	    -67.83709122	    -15.66664263	      6.00212108	     15.40714502	      2.01201100	    -15.50826272	    -26.87935541	      8.78756079	     -5.62248733	     -7.27189540	     -7.83200534	      0.50744923
      3.09000000	     -0.43045511	      2.31732554	    -11.10570525	     -0.85204823	      0.91738363	      0.00563491	     14.47574526	     -1.62313392	      5.34833930	    -68.85505049	    -14.20885963	      5.50595243	     14.28461278	      2.26891923	    -15.36191189	    -26.29278542	      9.06610534	     -5.53494105	     -7.65981910	     -7.70678681	      0.04462762
      3.10000000	     -0.21418777	      2.19678618	    -10.83066842	     -0.84365380	      0.91864711	      0.00477003	     15.96513640	     -1.39330728	      5.04295440	    -69.55118385	    -12.75325963	      5.05709076	     13.16496538	      2.46153708	    -15.17192916	    -25.69043934	      9.33544951	     -5.46898384	     -8.03180023	     -7.50354433	     -0.43629696
      3.11000000	     -0.01843757	      2.03229004	    -10.50861832	     -0.83528223	      0.91987262	      0.00389691	     17.39101100	     -1.12272842	      4.69248426	    -69.93353519	    -11.36044359	      4.65271458	     12.05779680	      2.60410232	    -14.91500115	    -25.08028643	      9.59255557	     -5.41652015	     -8.39206098	     -7.24441614	     -0.93645969
      3.12000000	      0.15855783	      1.82929472	    -10.13186601	     -0.82687171	      0.92105759	      0.00298709	     18.73785274	     -0.83062415	      4.28637593	    -69.99664470	    -10.06299249	      4.29168898	     10.95347488	      2.70423976	    -14.59146848	    -24.44924575	      9.83889916	     -5.37388701	     -8.72539358	     -6.92822903	     -1.42909479
      3.13000000	      0.32000973	      1.59581762	     -9.71512203	     -0.81845328	      0.92219696	      0.00207122	     20.00224937	     -0.53456668	      3.83064585	    -69.74221706	     -8.89554689	      4.02408151	      9.85806169	      2.76069412	    -14.21225529	    -23.80953975	     10.06231834	     -5.34498608	     -9.04124149	     -6.57476938	     -1.90575750
      3.14000000	      0.45925780	      1.35473876	     -9.25845387	     -0.81004169	      0.92324802	      0.00115027	     21.19301989	     -0.24777298	      3.35746422	    -69.18577424	     -7.84561066	      3.93240515	      8.79787995	      2.78885809	    -13.80438720	    -23.18887549	     10.26198860	     -5.34286313	     -9.32869277	     -6.20380233	     -2.42001047
      3.15000000	      0.60158901	      1.09814208	     -8.75973080	     -0.80159858	      0.92426424	      0.00021395	     22.26879037	      0.01211950	      2.83497094	    -68.31857161	     -6.94055694	      3.92080942	      7.72793975	      2.79170887	    -13.32835002	    -22.55500019	     10.41495266	     -5.36593686	     -9.61432786	     -5.81366335	     -2.92160869
      3.16000000	      0.74827834	      0.84031131	     -8.23248956	     -0.79312868	      0.92521954	     -0.00072425	     23.23036714	      0.23342627	      2.28187965	    -67.15683079	     -6.14683315	      4.00558964	      6.65438293	      2.77788891	    -12.81715160	    -21.92006308	     10.52856968	     -5.42705956	     -9.89615565	     -5.41910120	     -3.42785242
      3.17000000	      0.90105563	      0.59003615	     -7.69904781	     -0.78463298	      0.92610140	     -0.00164475	     24.07717414	      0.41175522	      1.71597389	    -65.71309139	     -5.44985987	      4.16984586	      5.57251816	      2.75569414	    -12.28526457	    -21.27787740	     10.60441541	     -5.53498241	    -10.17492417	     -5.03208399	     -3.91747640
      3.18000000	      1.02563856	      0.36872311	     -7.14761092	     -0.77610960	      0.92681992	     -0.00255997	     24.84702013	      0.53170286	      1.13696772	    -64.01115643	     -4.78032452	      4.37016668	      4.53486445	      2.73775310	    -11.75869698	    -20.65429970	     10.66906330	     -5.66397354	    -10.41031849	     -4.67046403	     -4.41929594
      3.19000000	      1.14222652	      0.16576593	     -6.60147909	     -0.76752911	      0.92740813	     -0.00343396	     25.51232528	      0.59587609	      0.52625503	    -62.05103035	     -4.18126844	      4.56665075	      3.50393040	      2.71712463	    -11.23743648	    -20.02753194	     10.73281293	     -5.78785364	    -10.62004879	     -4.33188869	     -4.87488145
      3.20000000	      1.31143331	     -0.02822996	     -6.09253293	     -0.75886825	      0.92797562	     -0.00417917	     25.99089178	      0.65521293	     -0.04325461	    -59.81544323	     -3.74725261	      4.72308748	      2.38974779	      2.68967916	    -10.75687431	    -19.35604065	     10.83306522	     -5.87300061	    -10.87747155	     -4.01985375	     -5.33343316
      3.21000000	      1.39678464	     -0.18137792	     -5.56551743	     -0.75014538	      0.92823238	     -0.00494481	     26.44828639	      0.63468894	     -0.68536887	    -57.36015515	     -3.30514078	      4.80480673	      1.40261287	      2.66924165	    -10.30847987	    -18.75163675	     11.00455466	     -5.86535942	    -11.02160870	     -3.73864791	     -5.76817925
      3.22000000	      1.55053127	     -0.33500310	     -5.09417595	     -0.74130582	      0.92847865	     -0.00553017	     26.68753572	      0.64655987	     -1.27173742	    -54.63072140	     -3.03812136	      4.73230435	      0.30760845	      2.63210475	     -9.92182425	    -18.09704979	     11.21503699	     -5.73691943	    -11.23094388	     -3.48277902	     -6.15675079
      3.23000000	      1.58834706	     -0.44628075	     -4.58892488	     -0.73239590	      0.92834378	     -0.00615312	     26.93746697	      0.59029367	     -1.94288014	    -51.70063853	     -2.80157911	      4.63750412	     -0.60947739	      2.60620488	     -9.52418589	    -17.54563928	     11.50767820	     -5.61084386	    -11.29196199	     -3.25504204	     -6.57491825
